<?xml version="1.0" encoding="utf-8" standalone="no"?>
<!DOCTYPE svg PUBLIC "-//W3C//DTD SVG 1.1//EN"
  "http://www.w3.org/Graphics/SVG/1.1/DTD/svg11.dtd">
<!-- Created with matplotlib (https://matplotlib.org/) -->
<svg height="707.04pt" version="1.1" viewBox="0 0 1330.56 707.04" width="1330.56pt" xmlns="http://www.w3.org/2000/svg" xmlns:xlink="http://www.w3.org/1999/xlink">
 <defs>
  <style type="text/css">
*{stroke-linecap:butt;stroke-linejoin:round;}
  </style>
 </defs>
 <g id="figure_1">
  <g id="patch_1">
   <path d="M 0 707.04 
L 1330.56 707.04 
L 1330.56 0 
L 0 0 
z
" style="fill:#ffffff;"/>
  </g>
  <g id="axes_1">
   <g id="patch_2">
    <path d="M 166.32 629.2656 
L 1197.504 629.2656 
L 1197.504 84.8448 
L 166.32 84.8448 
z
" style="fill:#ffffff;"/>
   </g>
   <g id="matplotlib.axis_1">
    <g id="xtick_1">
     <g id="line2d_1">
      <defs>
       <path d="M 0 0 
L 0 3.5 
" id="mf3e4ef26a4" style="stroke:#000000;stroke-width:0.8;"/>
      </defs>
      <g>
       <use style="stroke:#000000;stroke-width:0.8;" x="171.044088" xlink:href="#mf3e4ef26a4" y="629.2656"/>
      </g>
     </g>
     <g id="text_1">
      <!-- 2019-10-09 -->
      <defs>
       <path d="M 19.1875 8.296875 
L 53.609375 8.296875 
L 53.609375 0 
L 7.328125 0 
L 7.328125 8.296875 
Q 12.9375 14.109375 22.625 23.890625 
Q 32.328125 33.6875 34.8125 36.53125 
Q 39.546875 41.84375 41.421875 45.53125 
Q 43.3125 49.21875 43.3125 52.78125 
Q 43.3125 58.59375 39.234375 62.25 
Q 35.15625 65.921875 28.609375 65.921875 
Q 23.96875 65.921875 18.8125 64.3125 
Q 13.671875 62.703125 7.8125 59.421875 
L 7.8125 69.390625 
Q 13.765625 71.78125 18.9375 73 
Q 24.125 74.21875 28.421875 74.21875 
Q 39.75 74.21875 46.484375 68.546875 
Q 53.21875 62.890625 53.21875 53.421875 
Q 53.21875 48.921875 51.53125 44.890625 
Q 49.859375 40.875 45.40625 35.40625 
Q 44.1875 33.984375 37.640625 27.21875 
Q 31.109375 20.453125 19.1875 8.296875 
z
" id="DejaVuSans-50"/>
       <path d="M 31.78125 66.40625 
Q 24.171875 66.40625 20.328125 58.90625 
Q 16.5 51.421875 16.5 36.375 
Q 16.5 21.390625 20.328125 13.890625 
Q 24.171875 6.390625 31.78125 6.390625 
Q 39.453125 6.390625 43.28125 13.890625 
Q 47.125 21.390625 47.125 36.375 
Q 47.125 51.421875 43.28125 58.90625 
Q 39.453125 66.40625 31.78125 66.40625 
z
M 31.78125 74.21875 
Q 44.046875 74.21875 50.515625 64.515625 
Q 56.984375 54.828125 56.984375 36.375 
Q 56.984375 17.96875 50.515625 8.265625 
Q 44.046875 -1.421875 31.78125 -1.421875 
Q 19.53125 -1.421875 13.0625 8.265625 
Q 6.59375 17.96875 6.59375 36.375 
Q 6.59375 54.828125 13.0625 64.515625 
Q 19.53125 74.21875 31.78125 74.21875 
z
" id="DejaVuSans-48"/>
       <path d="M 12.40625 8.296875 
L 28.515625 8.296875 
L 28.515625 63.921875 
L 10.984375 60.40625 
L 10.984375 69.390625 
L 28.421875 72.90625 
L 38.28125 72.90625 
L 38.28125 8.296875 
L 54.390625 8.296875 
L 54.390625 0 
L 12.40625 0 
z
" id="DejaVuSans-49"/>
       <path d="M 10.984375 1.515625 
L 10.984375 10.5 
Q 14.703125 8.734375 18.5 7.8125 
Q 22.3125 6.890625 25.984375 6.890625 
Q 35.75 6.890625 40.890625 13.453125 
Q 46.046875 20.015625 46.78125 33.40625 
Q 43.953125 29.203125 39.59375 26.953125 
Q 35.25 24.703125 29.984375 24.703125 
Q 19.046875 24.703125 12.671875 31.3125 
Q 6.296875 37.9375 6.296875 49.421875 
Q 6.296875 60.640625 12.9375 67.421875 
Q 19.578125 74.21875 30.609375 74.21875 
Q 43.265625 74.21875 49.921875 64.515625 
Q 56.59375 54.828125 56.59375 36.375 
Q 56.59375 19.140625 48.40625 8.859375 
Q 40.234375 -1.421875 26.421875 -1.421875 
Q 22.703125 -1.421875 18.890625 -0.6875 
Q 15.09375 0.046875 10.984375 1.515625 
z
M 30.609375 32.421875 
Q 37.25 32.421875 41.125 36.953125 
Q 45.015625 41.5 45.015625 49.421875 
Q 45.015625 57.28125 41.125 61.84375 
Q 37.25 66.40625 30.609375 66.40625 
Q 23.96875 66.40625 20.09375 61.84375 
Q 16.21875 57.28125 16.21875 49.421875 
Q 16.21875 41.5 20.09375 36.953125 
Q 23.96875 32.421875 30.609375 32.421875 
z
" id="DejaVuSans-57"/>
       <path d="M 4.890625 31.390625 
L 31.203125 31.390625 
L 31.203125 23.390625 
L 4.890625 23.390625 
z
" id="DejaVuSans-45"/>
      </defs>
      <g transform="translate(141.986276 643.864037)scale(0.1 -0.1)">
       <use xlink:href="#DejaVuSans-50"/>
       <use x="63.623047" xlink:href="#DejaVuSans-48"/>
       <use x="127.246094" xlink:href="#DejaVuSans-49"/>
       <use x="190.869141" xlink:href="#DejaVuSans-57"/>
       <use x="254.492188" xlink:href="#DejaVuSans-45"/>
       <use x="290.576172" xlink:href="#DejaVuSans-49"/>
       <use x="354.199219" xlink:href="#DejaVuSans-48"/>
       <use x="417.822266" xlink:href="#DejaVuSans-45"/>
       <use x="453.90625" xlink:href="#DejaVuSans-48"/>
       <use x="517.529297" xlink:href="#DejaVuSans-57"/>
      </g>
     </g>
    </g>
    <g id="xtick_2">
     <g id="line2d_2">
      <g>
       <use style="stroke:#000000;stroke-width:0.8;" x="370.011589" xlink:href="#mf3e4ef26a4" y="629.2656"/>
      </g>
     </g>
     <g id="text_2">
      <!-- 2019-12-19 -->
      <g transform="translate(340.953776 643.864037)scale(0.1 -0.1)">
       <use xlink:href="#DejaVuSans-50"/>
       <use x="63.623047" xlink:href="#DejaVuSans-48"/>
       <use x="127.246094" xlink:href="#DejaVuSans-49"/>
       <use x="190.869141" xlink:href="#DejaVuSans-57"/>
       <use x="254.492188" xlink:href="#DejaVuSans-45"/>
       <use x="290.576172" xlink:href="#DejaVuSans-49"/>
       <use x="354.199219" xlink:href="#DejaVuSans-50"/>
       <use x="417.822266" xlink:href="#DejaVuSans-45"/>
       <use x="453.90625" xlink:href="#DejaVuSans-49"/>
       <use x="517.529297" xlink:href="#DejaVuSans-57"/>
      </g>
     </g>
    </g>
    <g id="xtick_3">
     <g id="line2d_3">
      <g>
       <use style="stroke:#000000;stroke-width:0.8;" x="568.97909" xlink:href="#mf3e4ef26a4" y="629.2656"/>
      </g>
     </g>
     <g id="text_3">
      <!-- 2020-03-04 -->
      <defs>
       <path d="M 40.578125 39.3125 
Q 47.65625 37.796875 51.625 33 
Q 55.609375 28.21875 55.609375 21.1875 
Q 55.609375 10.40625 48.1875 4.484375 
Q 40.765625 -1.421875 27.09375 -1.421875 
Q 22.515625 -1.421875 17.65625 -0.515625 
Q 12.796875 0.390625 7.625 2.203125 
L 7.625 11.71875 
Q 11.71875 9.328125 16.59375 8.109375 
Q 21.484375 6.890625 26.8125 6.890625 
Q 36.078125 6.890625 40.9375 10.546875 
Q 45.796875 14.203125 45.796875 21.1875 
Q 45.796875 27.640625 41.28125 31.265625 
Q 36.765625 34.90625 28.71875 34.90625 
L 20.21875 34.90625 
L 20.21875 43.015625 
L 29.109375 43.015625 
Q 36.375 43.015625 40.234375 45.921875 
Q 44.09375 48.828125 44.09375 54.296875 
Q 44.09375 59.90625 40.109375 62.90625 
Q 36.140625 65.921875 28.71875 65.921875 
Q 24.65625 65.921875 20.015625 65.03125 
Q 15.375 64.15625 9.8125 62.3125 
L 9.8125 71.09375 
Q 15.4375 72.65625 20.34375 73.4375 
Q 25.25 74.21875 29.59375 74.21875 
Q 40.828125 74.21875 47.359375 69.109375 
Q 53.90625 64.015625 53.90625 55.328125 
Q 53.90625 49.265625 50.4375 45.09375 
Q 46.96875 40.921875 40.578125 39.3125 
z
" id="DejaVuSans-51"/>
       <path d="M 37.796875 64.3125 
L 12.890625 25.390625 
L 37.796875 25.390625 
z
M 35.203125 72.90625 
L 47.609375 72.90625 
L 47.609375 25.390625 
L 58.015625 25.390625 
L 58.015625 17.1875 
L 47.609375 17.1875 
L 47.609375 0 
L 37.796875 0 
L 37.796875 17.1875 
L 4.890625 17.1875 
L 4.890625 26.703125 
z
" id="DejaVuSans-52"/>
      </defs>
      <g transform="translate(539.921277 643.864037)scale(0.1 -0.1)">
       <use xlink:href="#DejaVuSans-50"/>
       <use x="63.623047" xlink:href="#DejaVuSans-48"/>
       <use x="127.246094" xlink:href="#DejaVuSans-50"/>
       <use x="190.869141" xlink:href="#DejaVuSans-48"/>
       <use x="254.492188" xlink:href="#DejaVuSans-45"/>
       <use x="290.576172" xlink:href="#DejaVuSans-48"/>
       <use x="354.199219" xlink:href="#DejaVuSans-51"/>
       <use x="417.822266" xlink:href="#DejaVuSans-45"/>
       <use x="453.90625" xlink:href="#DejaVuSans-48"/>
       <use x="517.529297" xlink:href="#DejaVuSans-52"/>
      </g>
     </g>
    </g>
    <g id="xtick_4">
     <g id="line2d_4">
      <g>
       <use style="stroke:#000000;stroke-width:0.8;" x="767.94659" xlink:href="#mf3e4ef26a4" y="629.2656"/>
      </g>
     </g>
     <g id="text_4">
      <!-- 2020-05-14 -->
      <defs>
       <path d="M 10.796875 72.90625 
L 49.515625 72.90625 
L 49.515625 64.59375 
L 19.828125 64.59375 
L 19.828125 46.734375 
Q 21.96875 47.46875 24.109375 47.828125 
Q 26.265625 48.1875 28.421875 48.1875 
Q 40.625 48.1875 47.75 41.5 
Q 54.890625 34.8125 54.890625 23.390625 
Q 54.890625 11.625 47.5625 5.09375 
Q 40.234375 -1.421875 26.90625 -1.421875 
Q 22.3125 -1.421875 17.546875 -0.640625 
Q 12.796875 0.140625 7.71875 1.703125 
L 7.71875 11.625 
Q 12.109375 9.234375 16.796875 8.0625 
Q 21.484375 6.890625 26.703125 6.890625 
Q 35.15625 6.890625 40.078125 11.328125 
Q 45.015625 15.765625 45.015625 23.390625 
Q 45.015625 31 40.078125 35.4375 
Q 35.15625 39.890625 26.703125 39.890625 
Q 22.75 39.890625 18.8125 39.015625 
Q 14.890625 38.140625 10.796875 36.28125 
z
" id="DejaVuSans-53"/>
      </defs>
      <g transform="translate(738.888778 643.864037)scale(0.1 -0.1)">
       <use xlink:href="#DejaVuSans-50"/>
       <use x="63.623047" xlink:href="#DejaVuSans-48"/>
       <use x="127.246094" xlink:href="#DejaVuSans-50"/>
       <use x="190.869141" xlink:href="#DejaVuSans-48"/>
       <use x="254.492188" xlink:href="#DejaVuSans-45"/>
       <use x="290.576172" xlink:href="#DejaVuSans-48"/>
       <use x="354.199219" xlink:href="#DejaVuSans-53"/>
       <use x="417.822266" xlink:href="#DejaVuSans-45"/>
       <use x="453.90625" xlink:href="#DejaVuSans-49"/>
       <use x="517.529297" xlink:href="#DejaVuSans-52"/>
      </g>
     </g>
    </g>
    <g id="xtick_5">
     <g id="line2d_5">
      <g>
       <use style="stroke:#000000;stroke-width:0.8;" x="966.914091" xlink:href="#mf3e4ef26a4" y="629.2656"/>
      </g>
     </g>
     <g id="text_5">
      <!-- 2020-07-27 -->
      <defs>
       <path d="M 8.203125 72.90625 
L 55.078125 72.90625 
L 55.078125 68.703125 
L 28.609375 0 
L 18.3125 0 
L 43.21875 64.59375 
L 8.203125 64.59375 
z
" id="DejaVuSans-55"/>
      </defs>
      <g transform="translate(937.856279 643.864037)scale(0.1 -0.1)">
       <use xlink:href="#DejaVuSans-50"/>
       <use x="63.623047" xlink:href="#DejaVuSans-48"/>
       <use x="127.246094" xlink:href="#DejaVuSans-50"/>
       <use x="190.869141" xlink:href="#DejaVuSans-48"/>
       <use x="254.492188" xlink:href="#DejaVuSans-45"/>
       <use x="290.576172" xlink:href="#DejaVuSans-48"/>
       <use x="354.199219" xlink:href="#DejaVuSans-55"/>
       <use x="417.822266" xlink:href="#DejaVuSans-45"/>
       <use x="453.90625" xlink:href="#DejaVuSans-50"/>
       <use x="517.529297" xlink:href="#DejaVuSans-55"/>
      </g>
     </g>
    </g>
    <g id="xtick_6">
     <g id="line2d_6">
      <g>
       <use style="stroke:#000000;stroke-width:0.8;" x="1165.881592" xlink:href="#mf3e4ef26a4" y="629.2656"/>
      </g>
     </g>
     <g id="text_6">
      <!-- 2020-10-06 -->
      <defs>
       <path d="M 33.015625 40.375 
Q 26.375 40.375 22.484375 35.828125 
Q 18.609375 31.296875 18.609375 23.390625 
Q 18.609375 15.53125 22.484375 10.953125 
Q 26.375 6.390625 33.015625 6.390625 
Q 39.65625 6.390625 43.53125 10.953125 
Q 47.40625 15.53125 47.40625 23.390625 
Q 47.40625 31.296875 43.53125 35.828125 
Q 39.65625 40.375 33.015625 40.375 
z
M 52.59375 71.296875 
L 52.59375 62.3125 
Q 48.875 64.0625 45.09375 64.984375 
Q 41.3125 65.921875 37.59375 65.921875 
Q 27.828125 65.921875 22.671875 59.328125 
Q 17.53125 52.734375 16.796875 39.40625 
Q 19.671875 43.65625 24.015625 45.921875 
Q 28.375 48.1875 33.59375 48.1875 
Q 44.578125 48.1875 50.953125 41.515625 
Q 57.328125 34.859375 57.328125 23.390625 
Q 57.328125 12.15625 50.6875 5.359375 
Q 44.046875 -1.421875 33.015625 -1.421875 
Q 20.359375 -1.421875 13.671875 8.265625 
Q 6.984375 17.96875 6.984375 36.375 
Q 6.984375 53.65625 15.1875 63.9375 
Q 23.390625 74.21875 37.203125 74.21875 
Q 40.921875 74.21875 44.703125 73.484375 
Q 48.484375 72.75 52.59375 71.296875 
z
" id="DejaVuSans-54"/>
      </defs>
      <g transform="translate(1136.82378 643.864037)scale(0.1 -0.1)">
       <use xlink:href="#DejaVuSans-50"/>
       <use x="63.623047" xlink:href="#DejaVuSans-48"/>
       <use x="127.246094" xlink:href="#DejaVuSans-50"/>
       <use x="190.869141" xlink:href="#DejaVuSans-48"/>
       <use x="254.492188" xlink:href="#DejaVuSans-45"/>
       <use x="290.576172" xlink:href="#DejaVuSans-49"/>
       <use x="354.199219" xlink:href="#DejaVuSans-48"/>
       <use x="417.822266" xlink:href="#DejaVuSans-45"/>
       <use x="453.90625" xlink:href="#DejaVuSans-48"/>
       <use x="517.529297" xlink:href="#DejaVuSans-54"/>
      </g>
     </g>
    </g>
    <g id="text_7">
     <!-- Date -->
     <defs>
      <path d="M 19.671875 64.796875 
L 19.671875 8.109375 
L 31.59375 8.109375 
Q 46.6875 8.109375 53.6875 14.9375 
Q 60.6875 21.78125 60.6875 36.53125 
Q 60.6875 51.171875 53.6875 57.984375 
Q 46.6875 64.796875 31.59375 64.796875 
z
M 9.8125 72.90625 
L 30.078125 72.90625 
Q 51.265625 72.90625 61.171875 64.09375 
Q 71.09375 55.28125 71.09375 36.53125 
Q 71.09375 17.671875 61.125 8.828125 
Q 51.171875 0 30.078125 0 
L 9.8125 0 
z
" id="DejaVuSans-68"/>
      <path d="M 34.28125 27.484375 
Q 23.390625 27.484375 19.1875 25 
Q 14.984375 22.515625 14.984375 16.5 
Q 14.984375 11.71875 18.140625 8.90625 
Q 21.296875 6.109375 26.703125 6.109375 
Q 34.1875 6.109375 38.703125 11.40625 
Q 43.21875 16.703125 43.21875 25.484375 
L 43.21875 27.484375 
z
M 52.203125 31.203125 
L 52.203125 0 
L 43.21875 0 
L 43.21875 8.296875 
Q 40.140625 3.328125 35.546875 0.953125 
Q 30.953125 -1.421875 24.3125 -1.421875 
Q 15.921875 -1.421875 10.953125 3.296875 
Q 6 8.015625 6 15.921875 
Q 6 25.140625 12.171875 29.828125 
Q 18.359375 34.515625 30.609375 34.515625 
L 43.21875 34.515625 
L 43.21875 35.40625 
Q 43.21875 41.609375 39.140625 45 
Q 35.0625 48.390625 27.6875 48.390625 
Q 23 48.390625 18.546875 47.265625 
Q 14.109375 46.140625 10.015625 43.890625 
L 10.015625 52.203125 
Q 14.9375 54.109375 19.578125 55.046875 
Q 24.21875 56 28.609375 56 
Q 40.484375 56 46.34375 49.84375 
Q 52.203125 43.703125 52.203125 31.203125 
z
" id="DejaVuSans-97"/>
      <path d="M 18.3125 70.21875 
L 18.3125 54.6875 
L 36.8125 54.6875 
L 36.8125 47.703125 
L 18.3125 47.703125 
L 18.3125 18.015625 
Q 18.3125 11.328125 20.140625 9.421875 
Q 21.96875 7.515625 27.59375 7.515625 
L 36.8125 7.515625 
L 36.8125 0 
L 27.59375 0 
Q 17.1875 0 13.234375 3.875 
Q 9.28125 7.765625 9.28125 18.015625 
L 9.28125 47.703125 
L 2.6875 47.703125 
L 2.6875 54.6875 
L 9.28125 54.6875 
L 9.28125 70.21875 
z
" id="DejaVuSans-116"/>
      <path d="M 56.203125 29.59375 
L 56.203125 25.203125 
L 14.890625 25.203125 
Q 15.484375 15.921875 20.484375 11.0625 
Q 25.484375 6.203125 34.421875 6.203125 
Q 39.59375 6.203125 44.453125 7.46875 
Q 49.3125 8.734375 54.109375 11.28125 
L 54.109375 2.78125 
Q 49.265625 0.734375 44.1875 -0.34375 
Q 39.109375 -1.421875 33.890625 -1.421875 
Q 20.796875 -1.421875 13.15625 6.1875 
Q 5.515625 13.8125 5.515625 26.8125 
Q 5.515625 40.234375 12.765625 48.109375 
Q 20.015625 56 32.328125 56 
Q 43.359375 56 49.78125 48.890625 
Q 56.203125 41.796875 56.203125 29.59375 
z
M 47.21875 32.234375 
Q 47.125 39.59375 43.09375 43.984375 
Q 39.0625 48.390625 32.421875 48.390625 
Q 24.90625 48.390625 20.390625 44.140625 
Q 15.875 39.890625 15.1875 32.171875 
z
" id="DejaVuSans-101"/>
     </defs>
     <g transform="translate(669.961219 657.542163)scale(0.1 -0.1)">
      <use xlink:href="#DejaVuSans-68"/>
      <use x="77.001953" xlink:href="#DejaVuSans-97"/>
      <use x="138.28125" xlink:href="#DejaVuSans-116"/>
      <use x="177.490234" xlink:href="#DejaVuSans-101"/>
     </g>
    </g>
   </g>
   <g id="matplotlib.axis_2">
    <g id="ytick_1">
     <g id="line2d_7">
      <defs>
       <path d="M 0 0 
L -3.5 0 
" id="m0ac8101e57" style="stroke:#000000;stroke-width:0.8;"/>
      </defs>
      <g>
       <use style="stroke:#000000;stroke-width:0.8;" x="166.32" xlink:href="#m0ac8101e57" y="628.10941"/>
      </g>
     </g>
     <g id="text_8">
      <!-- 50 -->
      <g transform="translate(146.595 631.908629)scale(0.1 -0.1)">
       <use xlink:href="#DejaVuSans-53"/>
       <use x="63.623047" xlink:href="#DejaVuSans-48"/>
      </g>
     </g>
    </g>
    <g id="ytick_2">
     <g id="line2d_8">
      <g>
       <use style="stroke:#000000;stroke-width:0.8;" x="166.32" xlink:href="#m0ac8101e57" y="565.671218"/>
      </g>
     </g>
     <g id="text_9">
      <!-- 60 -->
      <g transform="translate(146.595 569.470437)scale(0.1 -0.1)">
       <use xlink:href="#DejaVuSans-54"/>
       <use x="63.623047" xlink:href="#DejaVuSans-48"/>
      </g>
     </g>
    </g>
    <g id="ytick_3">
     <g id="line2d_9">
      <g>
       <use style="stroke:#000000;stroke-width:0.8;" x="166.32" xlink:href="#m0ac8101e57" y="503.233026"/>
      </g>
     </g>
     <g id="text_10">
      <!-- 70 -->
      <g transform="translate(146.595 507.032245)scale(0.1 -0.1)">
       <use xlink:href="#DejaVuSans-55"/>
       <use x="63.623047" xlink:href="#DejaVuSans-48"/>
      </g>
     </g>
    </g>
    <g id="ytick_4">
     <g id="line2d_10">
      <g>
       <use style="stroke:#000000;stroke-width:0.8;" x="166.32" xlink:href="#m0ac8101e57" y="440.794834"/>
      </g>
     </g>
     <g id="text_11">
      <!-- 80 -->
      <defs>
       <path d="M 31.78125 34.625 
Q 24.75 34.625 20.71875 30.859375 
Q 16.703125 27.09375 16.703125 20.515625 
Q 16.703125 13.921875 20.71875 10.15625 
Q 24.75 6.390625 31.78125 6.390625 
Q 38.8125 6.390625 42.859375 10.171875 
Q 46.921875 13.96875 46.921875 20.515625 
Q 46.921875 27.09375 42.890625 30.859375 
Q 38.875 34.625 31.78125 34.625 
z
M 21.921875 38.8125 
Q 15.578125 40.375 12.03125 44.71875 
Q 8.5 49.078125 8.5 55.328125 
Q 8.5 64.0625 14.71875 69.140625 
Q 20.953125 74.21875 31.78125 74.21875 
Q 42.671875 74.21875 48.875 69.140625 
Q 55.078125 64.0625 55.078125 55.328125 
Q 55.078125 49.078125 51.53125 44.71875 
Q 48 40.375 41.703125 38.8125 
Q 48.828125 37.15625 52.796875 32.3125 
Q 56.78125 27.484375 56.78125 20.515625 
Q 56.78125 9.90625 50.3125 4.234375 
Q 43.84375 -1.421875 31.78125 -1.421875 
Q 19.734375 -1.421875 13.25 4.234375 
Q 6.78125 9.90625 6.78125 20.515625 
Q 6.78125 27.484375 10.78125 32.3125 
Q 14.796875 37.15625 21.921875 38.8125 
z
M 18.3125 54.390625 
Q 18.3125 48.734375 21.84375 45.5625 
Q 25.390625 42.390625 31.78125 42.390625 
Q 38.140625 42.390625 41.71875 45.5625 
Q 45.3125 48.734375 45.3125 54.390625 
Q 45.3125 60.0625 41.71875 63.234375 
Q 38.140625 66.40625 31.78125 66.40625 
Q 25.390625 66.40625 21.84375 63.234375 
Q 18.3125 60.0625 18.3125 54.390625 
z
" id="DejaVuSans-56"/>
      </defs>
      <g transform="translate(146.595 444.594053)scale(0.1 -0.1)">
       <use xlink:href="#DejaVuSans-56"/>
       <use x="63.623047" xlink:href="#DejaVuSans-48"/>
      </g>
     </g>
    </g>
    <g id="ytick_5">
     <g id="line2d_11">
      <g>
       <use style="stroke:#000000;stroke-width:0.8;" x="166.32" xlink:href="#m0ac8101e57" y="378.356642"/>
      </g>
     </g>
     <g id="text_12">
      <!-- 90 -->
      <g transform="translate(146.595 382.155861)scale(0.1 -0.1)">
       <use xlink:href="#DejaVuSans-57"/>
       <use x="63.623047" xlink:href="#DejaVuSans-48"/>
      </g>
     </g>
    </g>
    <g id="ytick_6">
     <g id="line2d_12">
      <g>
       <use style="stroke:#000000;stroke-width:0.8;" x="166.32" xlink:href="#m0ac8101e57" y="315.91845"/>
      </g>
     </g>
     <g id="text_13">
      <!-- 100 -->
      <g transform="translate(140.2325 319.717669)scale(0.1 -0.1)">
       <use xlink:href="#DejaVuSans-49"/>
       <use x="63.623047" xlink:href="#DejaVuSans-48"/>
       <use x="127.246094" xlink:href="#DejaVuSans-48"/>
      </g>
     </g>
    </g>
    <g id="ytick_7">
     <g id="line2d_13">
      <g>
       <use style="stroke:#000000;stroke-width:0.8;" x="166.32" xlink:href="#m0ac8101e57" y="253.480258"/>
      </g>
     </g>
     <g id="text_14">
      <!-- 110 -->
      <g transform="translate(140.2325 257.279477)scale(0.1 -0.1)">
       <use xlink:href="#DejaVuSans-49"/>
       <use x="63.623047" xlink:href="#DejaVuSans-49"/>
       <use x="127.246094" xlink:href="#DejaVuSans-48"/>
      </g>
     </g>
    </g>
    <g id="ytick_8">
     <g id="line2d_14">
      <g>
       <use style="stroke:#000000;stroke-width:0.8;" x="166.32" xlink:href="#m0ac8101e57" y="191.042066"/>
      </g>
     </g>
     <g id="text_15">
      <!-- 120 -->
      <g transform="translate(140.2325 194.841285)scale(0.1 -0.1)">
       <use xlink:href="#DejaVuSans-49"/>
       <use x="63.623047" xlink:href="#DejaVuSans-50"/>
       <use x="127.246094" xlink:href="#DejaVuSans-48"/>
      </g>
     </g>
    </g>
    <g id="ytick_9">
     <g id="line2d_15">
      <g>
       <use style="stroke:#000000;stroke-width:0.8;" x="166.32" xlink:href="#m0ac8101e57" y="128.603874"/>
      </g>
     </g>
     <g id="text_16">
      <!-- 130 -->
      <g transform="translate(140.2325 132.403092)scale(0.1 -0.1)">
       <use xlink:href="#DejaVuSans-49"/>
       <use x="63.623047" xlink:href="#DejaVuSans-51"/>
       <use x="127.246094" xlink:href="#DejaVuSans-48"/>
      </g>
     </g>
    </g>
   </g>
   <g id="line2d_16">
    <path clip-path="url(#pca8ed78e3e)" d="M 171.044088 589.398393 
L 175.023438 584.668819 
L 179.002788 575.209633 
L 182.982138 575.735131 
L 186.961488 576.585208 
L 190.940838 578.05358 
L 194.920188 576.647041 
L 198.899538 574.90047 
L 202.878888 568.563474 
L 206.858238 569.413545 
L 210.837588 564.436647 
L 214.816938 563.818421 
L 218.796288 559.181549 
L 222.775638 555.363859 
L 226.754988 564.266653 
L 230.734338 564.313032 
L 234.713688 555.812097 
L 238.693038 544.900011 
L 242.672388 542.303388 
L 246.651738 542.875222 
L 250.631088 542.705253 
L 254.610438 538.11652 
L 258.589788 537.015778 
L 262.569138 533.822271 
L 266.548488 534.194359 
L 270.527838 530.303167 
L 274.507188 533.140165 
L 278.486539 528.30334 
L 282.465889 526.225953 
L 286.445239 527.481704 
L 290.424589 532.287471 
L 294.403939 534.116811 
L 298.383289 534.47337 
L 302.362639 527.357708 
L 306.341989 530.582272 
L 310.321339 525.07882 
L 314.300689 525.993439 
L 318.280039 530.783772 
L 322.259389 538.085457 
L 326.238739 534.53539 
L 330.218089 528.582395 
L 334.197439 520.629562 
L 338.176789 526.505058 
L 342.156139 524.086596 
L 346.135489 520.536529 
L 350.114839 519.46685 
L 354.094189 513.746413 
L 358.073539 506.444728 
L 362.052889 505.591991 
L 366.032239 506.630707 
L 370.011589 506.196643 
L 373.990939 507.095778 
L 377.970289 500.026607 
L 381.949639 499.608077 
L 385.928989 490.864576 
L 389.908339 491.035114 
L 393.887689 488.368659 
L 397.867039 485.066634 
L 401.846389 474.679816 
L 405.825739 479.206623 
L 409.805089 475.53251 
L 413.784439 477.718315 
L 417.763789 470.277149 
L 421.743139 460.293432 
L 425.722489 459.208319 
L 429.701839 448.930062 
L 433.681189 455.565169 
L 437.660539 457.642507 
L 441.639889 451.596517 
L 445.619239 446.186054 
L 449.598589 449.53462 
L 453.577939 447.782786 
L 457.557289 445.410915 
L 461.536639 446.837197 
L 465.515989 461.347626 
L 469.495339 447.798364 
L 473.474689 437.489144 
L 477.454039 438.217742 
L 481.433389 460.479455 
L 485.412739 461.797175 
L 489.392089 446.000081 
L 493.371439 441.969315 
L 497.350789 436.14041 
L 501.330139 442.993308 
L 505.309489 440.631296 
L 509.288839 443.645981 
L 513.268189 431.8515 
L 517.247539 435.472209 
L 521.226889 435.347882 
L 525.20624 444.593849 
L 529.18559 437.414637 
L 533.16494 442.573773 
L 537.14429 453.839771 
L 541.12364 476.946885 
L 545.10299 492.641654 
L 549.08234 485.540141 
L 553.06169 515.266976 
L 557.04104 515.515636 
L 561.02039 475.96791 
L 564.99974 490.714712 
L 568.97909 469.860899 
L 572.95844 485.120556 
L 576.93779 491.165353 
L 580.91714 526.688414 
L 584.89649 496.899415 
L 588.87584 512.298977 
L 592.85519 554.566086 
L 596.83454 508.351953 
L 600.81389 563.920789 
L 604.79324 547.371346 
L 608.77259 556.990243 
L 612.75194 559.927204 
L 616.73129 584.075387 
L 620.71064 591.643102 
L 624.68999 556.66391 
L 628.66934 558.77728 
L 632.64869 538.700348 
L 636.62804 555.327533 
L 640.60739 544.341189 
L 644.58674 545.149221 
L 648.56609 565.940914 
L 652.54544 559.694091 
L 656.52479 565.163958 
L 660.50414 532.438004 
L 664.48349 537.161977 
L 668.46284 526.843804 
L 672.44219 523.860276 
L 676.42154 515.686511 
L 680.40089 494.242195 
L 684.38024 498.313502 
L 688.35959 494.801591 
L 692.33894 500.846433 
L 696.31829 509.968072 
L 700.29764 523.269773 
L 704.27699 511.257832 
L 708.25634 512.920543 
L 712.23569 500.582244 
L 716.21504 500.271464 
L 720.19439 507.404085 
L 724.17374 493.185472 
L 728.15309 483.753103 
L 732.13244 491.103234 
L 736.11179 484.747613 
L 740.09114 477.910287 
L 748.04984 468.306994 
L 752.02919 457.072721 
L 756.00854 449.468973 
L 759.98789 455.078276 
L 763.96724 460.936952 
L 767.94659 457.992011 
L 771.92594 460.843444 
L 775.905291 449.546908 
L 779.884641 452.382663 
L 783.863991 442.893557 
L 787.843341 446.601967 
L 791.822691 443.423326 
L 795.802041 446.788944 
L 799.781391 444.638723 
L 803.760741 444.420595 
L 807.740091 444.903586 
L 811.719441 438.811248 
L 815.698791 436.489633 
L 819.678141 433.716135 
L 823.657491 438.078929 
L 827.636841 423.775151 
L 831.616191 420.721218 
L 835.595541 404.313947 
L 839.574891 390.524353 
L 843.554241 416.919344 
L 847.533591 412.400729 
L 851.512941 405.872092 
L 855.492291 391.70855 
L 859.471641 392.472019 
L 863.450991 392.253848 
L 867.430341 395.38576 
L 871.409691 381.128711 
L 875.389041 369.193319 
L 879.368391 379.274502 
L 883.347741 371.826575 
L 887.327091 389.293378 
L 891.306441 376.594518 
L 895.285791 371.888932 
L 899.265141 372.964043 
L 903.244491 372.964043 
L 907.223841 357.787697 
L 911.203191 359.595127 
L 915.182541 346.07044 
L 919.161891 343.515069 
L 923.141241 342.471115 
L 927.120591 345.229035 
L 931.099941 335.381558 
L 935.079291 331.221314 
L 939.058641 338.71602 
L 943.037991 339.931373 
L 947.017341 327.279198 
L 950.996691 335.739929 
L 954.976041 334.041541 
L 958.955391 361.636306 
L 962.934741 363.069831 
L 966.914091 349.389323 
L 970.893441 359.096514 
L 974.872791 347.955799 
L 978.852141 340.788306 
L 982.831491 278.026235 
L 986.810841 261.338479 
L 990.790191 256.804292 
L 994.769541 254.326857 
L 998.748891 230.393724 
L 1002.728241 246.53399 
L 1006.707591 236.450235 
L 1010.686941 257.382645 
L 1014.666291 234.68635 
L 1018.645641 222.198711 
L 1022.624992 222.838709 
L 1026.604342 224.711873 
L 1030.583692 218.749014 
L 1034.563042 217.843678 
L 1038.542392 201.812641 
L 1042.521742 163.756557 
L 1046.501092 154.468907 
L 1050.480442 160.915657 
L 1054.459792 150.316761 
L 1058.439142 159.760519 
L 1062.418492 161.024886 
L 1066.397842 134.597984 
L 1070.377192 102.504753 
L 1074.356542 119.862564 
L 1078.335892 185.547524 
L 1082.315242 185.048006 
L 1086.294592 235.872688 
L 1090.273942 207.775501 
L 1094.253292 231.689341 
L 1098.232642 240.992619 
L 1102.211992 220.013381 
L 1106.191342 218.889493 
L 1110.170692 240.180942 
L 1114.150042 251.357384 
L 1118.129392 273.210752 
L 1122.108742 252.98074 
L 1126.088092 242.178958 
L 1130.067442 271.462438 
L 1134.046792 264.59425 
L 1138.026142 239.244356 
L 1142.005492 222.510921 
L 1145.984842 227.943062 
L 1149.964192 217.203681 
L 1153.943542 211.084719 
L 1157.922892 234.623943 
L 1161.902242 212.895433 
L 1165.881592 233.749764 
L 1169.860942 221.761644 
L 1173.840292 222.44847 
L 1177.819642 213.586643 
L 1177.819642 213.586643 
" style="fill:none;stroke:#1f77b4;stroke-linecap:square;stroke-width:1.5;"/>
   </g>
   <g id="line2d_17">
    <path clip-path="url(#pca8ed78e3e)" d="M 246.651738 592.9172 
L 250.631088 590.248955 
L 254.610438 588.450118 
L 258.589788 587.885075 
L 262.569138 586.994244 
L 266.548488 585.239017 
L 270.527838 582.906618 
L 278.486539 576.899822 
L 282.465889 574.842589 
L 286.445239 571.804339 
L 290.424589 568.999573 
L 294.403939 565.813806 
L 298.383289 563.24384 
L 302.362639 561.338704 
L 306.341989 556.428012 
L 310.321339 550.343406 
L 314.300689 545.850418 
L 318.280039 543.968163 
L 322.259389 543.145637 
L 326.238739 541.622326 
L 330.218089 539.636599 
L 334.197439 539.505883 
L 338.176789 538.630242 
L 342.156139 538.363803 
L 346.135489 538.295355 
L 350.114839 538.639262 
L 354.094189 539.325851 
L 358.073539 541.477621 
L 362.052889 543.068652 
L 366.032239 543.847022 
L 370.011589 543.735783 
L 373.990939 542.842513 
L 377.970289 542.287165 
L 381.949639 542.34581 
L 389.908339 542.945611 
L 393.887689 542.892218 
L 397.867039 541.826067 
L 401.846389 539.786141 
L 405.825739 536.741077 
L 409.805089 534.550769 
L 413.784439 532.907257 
L 417.763789 530.14019 
L 421.743139 528.275531 
L 425.722489 526.141148 
L 429.701839 524.615791 
L 433.681189 522.103967 
L 441.639889 517.88052 
L 445.619239 515.303262 
L 449.598589 511.534149 
L 453.577939 506.721667 
L 457.557289 502.821781 
L 461.536639 497.954738 
L 465.515989 494.175323 
L 469.495339 489.888688 
L 473.474689 486.288695 
L 477.454039 482.500427 
L 481.433389 480.444791 
L 485.412739 477.212785 
L 489.392089 473.830321 
L 493.371439 469.160566 
L 497.350789 466.459608 
L 505.309489 463.896266 
L 513.268189 463.687653 
L 517.247539 462.483973 
L 521.226889 462.029766 
L 525.20624 461.938777 
L 529.18559 461.479173 
L 533.16494 461.145909 
L 537.14429 462.125691 
L 541.12364 468.853059 
L 545.10299 477.896948 
L 549.08234 484.234722 
L 553.06169 498.397043 
L 557.04104 509.512198 
L 561.02039 510.953637 
L 564.99974 514.3926 
L 568.97909 515.410498 
L 572.95844 517.900872 
L 576.93779 520.583627 
L 580.91714 530.063654 
L 584.89649 532.448602 
L 588.87584 536.812668 
L 592.85519 548.749575 
L 596.83454 549.619527 
L 600.81389 560.481556 
L 604.79324 566.067201 
L 608.77259 570.971165 
L 612.75194 575.069874 
L 616.73129 584.313833 
L 620.71064 595.42952 
L 624.68999 598.961552 
L 628.66934 601.770459 
L 632.64869 602.828787 
L 636.62804 605.405521 
L 640.60739 604.256455 
L 644.58674 603.930773 
L 652.54544 599.420859 
L 656.52479 597.067718 
L 660.50414 596.836864 
L 664.48349 592.266819 
L 668.46284 590.429159 
L 672.44219 591.003343 
L 676.42154 589.819223 
L 680.40089 593.560243 
L 684.38024 596.2428 
L 688.35959 597.609237 
L 692.33894 596.989593 
L 696.31829 590.677378 
L 700.29764 580.73949 
L 704.27699 577.92544 
L 708.25634 574.217931 
L 712.23569 573.540793 
L 716.21504 569.982008 
L 724.17374 565.120337 
L 728.15309 557.843544 
L 732.13244 550.006979 
L 736.11179 538.344643 
L 740.09114 535.836534 
L 744.07049 531.613215 
L 748.04984 529.552107 
L 752.02919 528.862102 
L 756.00854 529.697437 
L 759.98789 531.05752 
L 763.96724 530.886006 
L 767.94659 530.891706 
L 771.92594 529.656491 
L 775.905291 527.378923 
L 779.884641 520.963231 
L 783.863991 517.083534 
L 787.843341 511.285694 
L 791.822691 507.598582 
L 795.802041 502.872893 
L 799.781391 495.085658 
L 803.760741 490.05443 
L 807.740091 486.529892 
L 811.719441 480.408147 
L 815.698791 475.099937 
L 823.657491 466.953208 
L 827.636841 465.461261 
L 831.616191 466.125971 
L 835.595541 470.231612 
L 839.574891 474.668017 
L 843.554241 472.221862 
L 847.533591 470.092239 
L 851.512941 467.30375 
L 855.492291 467.628409 
L 859.471641 466.24494 
L 863.450991 465.559216 
L 867.430341 463.296227 
L 875.389041 461.213976 
L 879.368391 458.031658 
L 883.347741 454.620558 
L 887.327091 448.924168 
L 895.285791 439.570828 
L 899.265141 434.330788 
L 903.244491 426.539177 
L 907.223841 422.897492 
L 911.203191 418.548926 
L 915.182541 418.652944 
L 919.161891 419.960575 
L 923.141241 415.605924 
L 927.120591 410.685917 
L 931.099941 407.351402 
L 935.079291 406.40569 
L 939.058641 403.544607 
L 943.037991 399.875945 
L 947.017341 395.720335 
L 950.996691 392.95801 
L 954.976041 391.757191 
L 958.955391 389.152624 
L 962.934741 387.950048 
L 966.914091 381.411157 
L 974.872791 375.123985 
L 978.852141 371.014253 
L 982.831491 378.519627 
L 986.810841 387.601441 
L 990.790191 392.666217 
L 994.769541 396.794371 
L 998.748891 402.984461 
L 1002.728241 404.114786 
L 1006.707591 404.586239 
L 1010.686941 402.962472 
L 1014.666291 402.738249 
L 1018.645641 401.539126 
L 1022.624992 398.597124 
L 1026.604342 395.936772 
L 1030.583692 391.35569 
L 1034.563042 385.803317 
L 1038.542392 374.286254 
L 1042.521742 363.472285 
L 1046.501092 353.516349 
L 1054.459792 318.676557 
L 1058.439142 297.138955 
L 1062.418492 289.791787 
L 1066.397842 287.027115 
L 1070.377192 287.637416 
L 1074.356542 283.187135 
L 1078.335892 279.076355 
L 1082.315242 271.814191 
L 1086.294592 271.714029 
L 1090.273942 263.177708 
L 1094.253292 262.631973 
L 1098.232642 265.92673 
L 1102.211992 265.512794 
L 1106.191342 264.647938 
L 1110.170692 268.205603 
L 1114.150042 273.930522 
L 1118.129392 285.602471 
L 1122.108742 293.201128 
L 1126.088092 297.9187 
L 1130.067442 306.834968 
L 1134.046792 312.627436 
L 1138.026142 314.549653 
L 1142.005492 314.523943 
L 1145.984842 311.185379 
L 1149.964192 297.313174 
L 1153.943542 281.149287 
L 1157.922892 278.474359 
L 1161.902242 274.754412 
L 1165.881592 274.659414 
L 1169.860942 273.712129 
L 1173.840292 273.7234 
L 1177.819642 273.555163 
L 1177.819642 273.555163 
" style="fill:none;stroke:#ff7f0e;stroke-linecap:square;stroke-width:1.5;"/>
   </g>
   <g id="line2d_18">
    <path clip-path="url(#pca8ed78e3e)" d="M 246.651738 539.727417 
L 250.631088 537.726348 
L 254.610438 534.869955 
L 262.569138 528.315157 
L 270.527838 523.388658 
L 274.507188 522.098632 
L 278.486539 520.385053 
L 282.465889 518.208534 
L 286.445239 517.0536 
L 290.424589 516.643449 
L 294.403939 516.859054 
L 298.383289 516.958202 
L 302.362639 516.062723 
L 306.341989 517.604977 
L 310.321339 519.766162 
L 314.300689 521.277285 
L 322.259389 522.148648 
L 326.238739 522.837976 
L 330.218089 523.411417 
L 334.197439 521.793438 
L 338.176789 521.618006 
L 342.156139 520.910877 
L 346.135489 519.613542 
L 350.114839 518.186004 
L 354.094189 515.56004 
L 358.073539 511.222409 
L 362.052889 507.567982 
L 366.032239 504.704511 
L 370.011589 502.206668 
L 373.990939 500.397835 
L 381.949639 494.674899 
L 385.928989 490.414195 
L 393.887689 482.989872 
L 397.867039 479.484309 
L 401.846389 475.183671 
L 405.825739 472.695859 
L 409.805089 469.581178 
L 413.784439 466.933565 
L 417.763789 464.077842 
L 421.743139 459.563184 
L 425.722489 455.564746 
L 429.701839 450.036424 
L 433.681189 446.730124 
L 437.660539 443.976883 
L 441.639889 440.673802 
L 445.619239 437.206594 
L 449.598589 435.309505 
L 453.577939 434.190688 
L 457.557289 432.629004 
L 461.536639 432.218959 
L 465.515989 433.04668 
L 469.495339 433.00964 
L 473.474689 431.521681 
L 477.454039 430.62506 
L 481.433389 431.260659 
L 485.412739 432.751721 
L 489.392089 433.180942 
L 493.371439 434.275797 
L 497.350789 433.563081 
L 501.330139 433.161758 
L 505.309489 432.538708 
L 509.288839 432.147492 
L 513.268189 429.847546 
L 517.247539 428.834196 
L 521.226889 427.66354 
L 525.20624 427.595308 
L 529.18559 426.842914 
L 537.14429 426.51838 
L 541.12364 422.801981 
L 545.10299 416.887495 
L 549.08234 414.323899 
L 553.06169 407.939361 
L 557.04104 404.553996 
L 561.02039 404.661402 
L 564.99974 404.114192 
L 568.97909 405.482376 
L 572.95844 407.307127 
L 576.93779 410.126865 
L 580.91714 409.016349 
L 584.89649 412.258214 
L 588.87584 414.759447 
L 592.85519 415.093998 
L 596.83454 421.512021 
L 600.81389 423.507282 
L 604.79324 428.199387 
L 608.77259 435.252984 
L 612.75194 442.889618 
L 616.73129 446.669221 
L 620.71064 447.023155 
L 624.68999 449.893349 
L 628.66934 454.408156 
L 632.64869 455.693165 
L 636.62804 457.09762 
L 640.60739 465.084015 
L 644.58674 470.853147 
L 648.56609 482.683477 
L 656.52479 502.181418 
L 660.50414 502.987231 
L 664.48349 511.583533 
L 668.46284 514.875675 
L 672.44219 511.23091 
L 676.42154 513.148486 
L 680.40089 502.439607 
L 688.35959 487.265963 
L 692.33894 481.97753 
L 696.31829 480.879014 
L 700.29764 483.979568 
L 704.27699 482.253011 
L 708.25634 481.374845 
L 712.23569 478.240173 
L 716.21504 476.293351 
L 720.19439 475.057782 
L 724.17374 472.264937 
L 728.15309 471.322949 
L 732.13244 472.300429 
L 736.11179 475.92113 
L 740.09114 472.976468 
L 744.07049 470.79756 
L 748.04984 467.004987 
L 752.02919 461.016237 
L 756.00854 453.559148 
L 759.98789 448.282673 
L 767.94659 441.029874 
L 771.92594 438.26479 
L 775.905291 434.500242 
L 779.884641 433.827223 
L 783.863991 430.870492 
L 787.843341 430.036475 
L 791.822691 428.007695 
L 795.802041 427.385132 
L 799.781391 428.895831 
L 803.760741 429.050571 
L 807.740091 428.690157 
L 811.719441 429.582704 
L 815.698791 430.065116 
L 819.678141 429.724386 
L 823.657491 430.28635 
L 827.636841 427.325113 
L 831.616191 423.025253 
L 835.595541 414.404109 
L 839.574891 403.512312 
L 843.554241 401.556706 
L 847.533591 399.127201 
L 851.512941 396.418555 
L 855.492291 390.31006 
L 859.471641 385.702465 
L 863.450991 381.324218 
L 867.430341 378.465586 
L 871.409691 373.225059 
L 875.389041 366.558813 
L 879.368391 363.204709 
L 883.347741 359.356407 
L 887.327091 359.491776 
L 895.285791 356.163373 
L 899.265141 355.328203 
L 903.244491 356.608326 
L 907.223841 353.651266 
L 911.203191 351.887223 
L 919.161891 339.950295 
L 923.141241 336.860123 
L 927.120591 335.06296 
L 931.099941 331.348422 
L 935.079291 326.24541 
L 939.058641 323.730894 
L 943.037991 322.167308 
L 947.017341 319.512262 
L 950.996691 317.735709 
L 954.976041 315.42135 
L 958.955391 316.262098 
L 962.934741 316.588999 
L 966.914091 319.137485 
L 970.893441 320.471538 
L 978.852141 322.173701 
L 982.831491 305.174546 
L 986.810841 286.44781 
L 990.790191 271.103951 
L 994.769541 257.801439 
L 998.748891 240.299214 
L 1002.728241 229.575176 
L 1006.707591 218.225844 
L 1010.686941 212.049719 
L 1014.666291 202.620446 
L 1018.645641 192.167837 
L 1022.624992 183.400573 
L 1026.604342 175.804193 
L 1030.583692 168.686183 
L 1034.563042 162.61877 
L 1038.542392 158.153467 
L 1042.521742 149.036108 
L 1046.501092 139.500003 
L 1050.480442 137.045158 
L 1054.459792 134.757806 
L 1058.439142 138.192629 
L 1062.418492 133.839661 
L 1066.397842 123.930285 
L 1070.377192 107.890029 
L 1074.356542 98.893881 
L 1078.335892 98.520041 
L 1082.315242 99.633606 
L 1086.294592 99.676014 
L 1090.273942 103.25162 
L 1094.253292 103.497655 
L 1098.232642 102.082288 
L 1102.211992 102.213692 
L 1106.191342 102.49631 
L 1110.170692 101.081837 
L 1114.150042 98.708289 
L 1118.129392 94.176151 
L 1122.108742 95.499912 
L 1126.088092 99.553345 
L 1130.067442 101.691756 
L 1134.046792 107.327037 
L 1142.005492 119.527516 
L 1145.984842 132.200588 
L 1153.943542 182.828788 
L 1157.922892 190.411358 
L 1161.902242 196.916048 
L 1165.881592 196.798754 
L 1169.860942 199.144653 
L 1173.840292 198.209295 
L 1177.819642 195.636934 
L 1177.819642 195.636934 
" style="fill:none;stroke:#2ca02c;stroke-linecap:square;stroke-width:1.5;"/>
   </g>
   <g id="line2d_19">
    <path clip-path="url(#pca8ed78e3e)" d="M 246.651738 566.322309 
L 254.610438 561.660037 
L 258.589788 559.750344 
L 266.548488 555.535158 
L 270.527838 553.147638 
L 274.507188 550.972294 
L 278.486539 548.642437 
L 286.445239 544.428969 
L 290.424589 542.821511 
L 294.403939 541.33643 
L 298.383289 540.101021 
L 302.362639 538.700714 
L 306.341989 537.016494 
L 310.321339 535.054784 
L 314.300689 533.563851 
L 318.280039 532.858039 
L 322.259389 532.647143 
L 326.238739 532.230151 
L 330.218089 531.524008 
L 334.197439 530.64966 
L 342.156139 529.63734 
L 346.135489 528.954449 
L 350.114839 528.412633 
L 354.094189 527.442945 
L 370.011589 522.971225 
L 373.990939 521.620174 
L 377.970289 519.897836 
L 381.949639 518.510354 
L 385.928989 516.524469 
L 389.908339 514.822284 
L 393.887689 512.941045 
L 397.867039 510.655188 
L 401.846389 507.484906 
L 409.805089 502.065973 
L 413.784439 499.920411 
L 417.763789 497.109016 
L 425.722489 490.852947 
L 429.701839 487.326108 
L 433.681189 484.417045 
L 437.660539 481.976934 
L 441.639889 479.277161 
L 445.619239 476.254928 
L 457.557289 467.725393 
L 461.536639 465.086849 
L 465.515989 463.611001 
L 469.495339 461.449164 
L 473.474689 458.905188 
L 477.454039 456.562743 
L 481.433389 455.852725 
L 485.412739 454.982253 
L 489.392089 453.505631 
L 497.350789 450.011344 
L 505.309489 448.217487 
L 509.288839 447.953283 
L 517.247539 445.659085 
L 521.226889 444.846653 
L 525.20624 444.767043 
L 529.18559 444.161044 
L 533.16494 443.900593 
L 537.14429 444.322036 
L 545.10299 447.392222 
L 549.08234 449.27931 
L 557.04104 457.033097 
L 561.02039 457.807519 
L 564.99974 459.253396 
L 568.97909 460.446437 
L 572.95844 462.603999 
L 576.93779 465.355246 
L 580.91714 469.540002 
L 584.89649 472.353408 
L 588.87584 475.786057 
L 592.85519 481.921787 
L 596.83454 485.565774 
L 600.81389 491.994419 
L 604.79324 497.133294 
L 612.75194 508.979746 
L 616.73129 515.491527 
L 620.71064 521.226338 
L 624.68999 524.42745 
L 628.66934 528.089307 
L 632.64869 529.260976 
L 636.62804 531.251571 
L 640.60739 534.670235 
L 644.58674 537.39196 
L 648.56609 542.195961 
L 656.52479 549.624568 
L 660.50414 549.912048 
L 664.48349 551.925176 
L 668.46284 552.652417 
L 672.44219 551.117126 
L 676.42154 551.483854 
L 680.40089 547.999925 
L 684.38024 545.547033 
L 688.35959 542.4376 
L 692.33894 539.483561 
L 696.31829 535.778196 
L 700.29764 532.359529 
L 708.25634 527.796388 
L 712.23569 525.890483 
L 716.21504 523.13768 
L 720.19439 521.290825 
L 724.17374 518.692637 
L 728.15309 514.583247 
L 732.13244 511.153704 
L 736.11179 507.132886 
L 740.09114 504.406501 
L 744.07049 501.205388 
L 748.04984 498.278547 
L 756.00854 491.628293 
L 763.96724 487.801269 
L 767.94659 485.96079 
L 771.92594 483.960641 
L 775.905291 480.939582 
L 783.863991 473.977013 
L 787.843341 470.661084 
L 791.822691 467.803139 
L 795.802041 465.129013 
L 799.781391 461.990744 
L 803.760741 459.552501 
L 807.740091 457.610025 
L 811.719441 454.995425 
L 815.698791 452.582526 
L 819.678141 450.372819 
L 823.657491 448.619779 
L 827.636841 446.393187 
L 831.616191 444.575612 
L 835.595541 442.317861 
L 839.574891 439.090164 
L 847.533591 434.60972 
L 851.512941 431.861152 
L 859.471641 425.973702 
L 867.430341 420.880906 
L 871.409691 417.766176 
L 875.389041 413.886394 
L 879.368391 410.618183 
L 883.347741 406.988482 
L 887.327091 404.207972 
L 899.265141 394.829496 
L 907.223841 388.274379 
L 911.203191 385.218074 
L 915.182541 382.305899 
L 919.161891 379.955435 
L 923.141241 376.233023 
L 927.120591 372.874439 
L 931.099941 369.349912 
L 935.079291 366.32555 
L 943.037991 361.021626 
L 947.017341 357.616298 
L 950.996691 355.346859 
L 954.976041 353.58927 
L 958.955391 352.707361 
L 962.934741 352.269523 
L 966.914091 350.274321 
L 970.893441 349.39942 
L 974.872791 348.202764 
L 978.852141 346.593977 
L 986.810841 337.024626 
L 990.790191 331.885084 
L 994.769541 327.297905 
L 998.748891 321.641838 
L 1002.728241 316.844981 
L 1006.707591 311.406041 
L 1010.686941 307.506096 
L 1014.666291 302.679347 
L 1022.624992 290.998849 
L 1026.604342 285.870482 
L 1034.563042 274.211044 
L 1038.542392 266.21986 
L 1050.480442 236.599133 
L 1054.459792 226.717181 
L 1058.439142 217.665792 
L 1062.418492 211.815724 
L 1066.397842 205.4787 
L 1070.377192 197.763723 
L 1074.356542 191.040508 
L 1078.335892 188.798198 
L 1082.315242 185.723899 
L 1086.294592 185.695021 
L 1090.273942 183.214664 
L 1094.253292 183.064814 
L 1098.232642 184.004509 
L 1102.211992 183.863243 
L 1106.191342 183.572124 
L 1110.170692 184.64372 
L 1114.150042 186.319405 
L 1118.129392 189.889311 
L 1126.088092 198.736023 
L 1134.046792 209.977236 
L 1138.026142 213.951428 
L 1142.005492 217.02573 
L 1145.984842 221.692984 
L 1149.964192 227.42793 
L 1153.943542 231.989038 
L 1157.922892 234.442859 
L 1161.902242 235.83523 
L 1165.881592 235.729084 
L 1169.860942 236.428391 
L 1173.840292 235.966348 
L 1177.819642 234.596049 
L 1177.819642 234.596049 
" style="fill:none;stroke:#d62728;stroke-linecap:square;stroke-width:1.5;"/>
   </g>
   <g id="line2d_20">
    <path clip-path="url(#pca8ed78e3e)" d="M 334.197439 629.2656 
L 334.197439 84.8448 
" style="fill:none;stroke:#ff0000;stroke-linecap:square;stroke-width:1.5;"/>
   </g>
   <g id="line2d_21">
    <path clip-path="url(#pca8ed78e3e)" d="M 354.094189 629.2656 
L 354.094189 84.8448 
" style="fill:none;stroke:#ff0000;stroke-linecap:square;stroke-width:1.5;"/>
   </g>
   <g id="line2d_22">
    <path clip-path="url(#pca8ed78e3e)" d="M 401.846389 629.2656 
L 401.846389 84.8448 
" style="fill:none;stroke:#ff0000;stroke-linecap:square;stroke-width:1.5;"/>
   </g>
   <g id="line2d_23">
    <path clip-path="url(#pca8ed78e3e)" d="M 429.701839 629.2656 
L 429.701839 84.8448 
" style="fill:none;stroke:#ff0000;stroke-linecap:square;stroke-width:1.5;"/>
   </g>
   <g id="line2d_24">
    <path clip-path="url(#pca8ed78e3e)" d="M 541.12364 629.2656 
L 541.12364 84.8448 
" style="fill:none;stroke:#008000;stroke-linecap:square;stroke-width:1.5;"/>
   </g>
   <g id="line2d_25">
    <path clip-path="url(#pca8ed78e3e)" d="M 592.85519 629.2656 
L 592.85519 84.8448 
" style="fill:none;stroke:#008000;stroke-linecap:square;stroke-width:1.5;"/>
   </g>
   <g id="line2d_26">
    <path clip-path="url(#pca8ed78e3e)" d="M 600.81389 629.2656 
L 600.81389 84.8448 
" style="fill:none;stroke:#008000;stroke-linecap:square;stroke-width:1.5;"/>
   </g>
   <g id="line2d_27">
    <path clip-path="url(#pca8ed78e3e)" d="M 680.40089 629.2656 
L 680.40089 84.8448 
" style="fill:none;stroke:#ff0000;stroke-linecap:square;stroke-width:1.5;"/>
   </g>
   <g id="line2d_28">
    <path clip-path="url(#pca8ed78e3e)" d="M 752.02919 629.2656 
L 752.02919 84.8448 
" style="fill:none;stroke:#ff0000;stroke-linecap:square;stroke-width:1.5;"/>
   </g>
   <g id="line2d_29">
    <path clip-path="url(#pca8ed78e3e)" d="M 827.636841 629.2656 
L 827.636841 84.8448 
" style="fill:none;stroke:#ff0000;stroke-linecap:square;stroke-width:1.5;"/>
   </g>
   <g id="line2d_30">
    <path clip-path="url(#pca8ed78e3e)" d="M 982.831491 629.2656 
L 982.831491 84.8448 
" style="fill:none;stroke:#ff0000;stroke-linecap:square;stroke-width:1.5;"/>
   </g>
   <g id="line2d_31">
    <path clip-path="url(#pca8ed78e3e)" d="M 1070.377192 629.2656 
L 1070.377192 84.8448 
" style="fill:none;stroke:#ff0000;stroke-linecap:square;stroke-width:1.5;"/>
   </g>
   <g id="patch_3">
    <path d="M 166.32 629.2656 
L 166.32 84.8448 
" style="fill:none;stroke:#000000;stroke-linecap:square;stroke-linejoin:miter;stroke-width:0.8;"/>
   </g>
   <g id="patch_4">
    <path d="M 1197.504 629.2656 
L 1197.504 84.8448 
" style="fill:none;stroke:#000000;stroke-linecap:square;stroke-linejoin:miter;stroke-width:0.8;"/>
   </g>
   <g id="patch_5">
    <path d="M 166.32 629.2656 
L 1197.504 629.2656 
" style="fill:none;stroke:#000000;stroke-linecap:square;stroke-linejoin:miter;stroke-width:0.8;"/>
   </g>
   <g id="patch_6">
    <path d="M 166.32 84.8448 
L 1197.504 84.8448 
" style="fill:none;stroke:#000000;stroke-linecap:square;stroke-linejoin:miter;stroke-width:0.8;"/>
   </g>
   <g id="legend_1">
    <g id="patch_7">
     <path d="M 173.32 151.5573 
L 251.5325 151.5573 
Q 253.5325 151.5573 253.5325 149.5573 
L 253.5325 91.8448 
Q 253.5325 89.8448 251.5325 89.8448 
L 173.32 89.8448 
Q 171.32 89.8448 171.32 91.8448 
L 171.32 149.5573 
Q 171.32 151.5573 173.32 151.5573 
z
" style="fill:#ffffff;opacity:0.8;stroke:#cccccc;stroke-linejoin:miter;"/>
    </g>
    <g id="line2d_32">
     <path d="M 175.32 97.943237 
L 195.32 97.943237 
" style="fill:none;stroke:#1f77b4;stroke-linecap:square;stroke-width:1.5;"/>
    </g>
    <g id="line2d_33"/>
    <g id="text_17">
     <!-- Adj Close -->
     <defs>
      <path d="M 34.1875 63.1875 
L 20.796875 26.90625 
L 47.609375 26.90625 
z
M 28.609375 72.90625 
L 39.796875 72.90625 
L 67.578125 0 
L 57.328125 0 
L 50.6875 18.703125 
L 17.828125 18.703125 
L 11.1875 0 
L 0.78125 0 
z
" id="DejaVuSans-65"/>
      <path d="M 45.40625 46.390625 
L 45.40625 75.984375 
L 54.390625 75.984375 
L 54.390625 0 
L 45.40625 0 
L 45.40625 8.203125 
Q 42.578125 3.328125 38.25 0.953125 
Q 33.9375 -1.421875 27.875 -1.421875 
Q 17.96875 -1.421875 11.734375 6.484375 
Q 5.515625 14.40625 5.515625 27.296875 
Q 5.515625 40.1875 11.734375 48.09375 
Q 17.96875 56 27.875 56 
Q 33.9375 56 38.25 53.625 
Q 42.578125 51.265625 45.40625 46.390625 
z
M 14.796875 27.296875 
Q 14.796875 17.390625 18.875 11.75 
Q 22.953125 6.109375 30.078125 6.109375 
Q 37.203125 6.109375 41.296875 11.75 
Q 45.40625 17.390625 45.40625 27.296875 
Q 45.40625 37.203125 41.296875 42.84375 
Q 37.203125 48.484375 30.078125 48.484375 
Q 22.953125 48.484375 18.875 42.84375 
Q 14.796875 37.203125 14.796875 27.296875 
z
" id="DejaVuSans-100"/>
      <path d="M 9.421875 54.6875 
L 18.40625 54.6875 
L 18.40625 -0.984375 
Q 18.40625 -11.421875 14.421875 -16.109375 
Q 10.453125 -20.796875 1.609375 -20.796875 
L -1.8125 -20.796875 
L -1.8125 -13.1875 
L 0.59375 -13.1875 
Q 5.71875 -13.1875 7.5625 -10.8125 
Q 9.421875 -8.453125 9.421875 -0.984375 
z
M 9.421875 75.984375 
L 18.40625 75.984375 
L 18.40625 64.59375 
L 9.421875 64.59375 
z
" id="DejaVuSans-106"/>
      <path id="DejaVuSans-32"/>
      <path d="M 64.40625 67.28125 
L 64.40625 56.890625 
Q 59.421875 61.53125 53.78125 63.8125 
Q 48.140625 66.109375 41.796875 66.109375 
Q 29.296875 66.109375 22.65625 58.46875 
Q 16.015625 50.828125 16.015625 36.375 
Q 16.015625 21.96875 22.65625 14.328125 
Q 29.296875 6.6875 41.796875 6.6875 
Q 48.140625 6.6875 53.78125 8.984375 
Q 59.421875 11.28125 64.40625 15.921875 
L 64.40625 5.609375 
Q 59.234375 2.09375 53.4375 0.328125 
Q 47.65625 -1.421875 41.21875 -1.421875 
Q 24.65625 -1.421875 15.125 8.703125 
Q 5.609375 18.84375 5.609375 36.375 
Q 5.609375 53.953125 15.125 64.078125 
Q 24.65625 74.21875 41.21875 74.21875 
Q 47.75 74.21875 53.53125 72.484375 
Q 59.328125 70.75 64.40625 67.28125 
z
" id="DejaVuSans-67"/>
      <path d="M 9.421875 75.984375 
L 18.40625 75.984375 
L 18.40625 0 
L 9.421875 0 
z
" id="DejaVuSans-108"/>
      <path d="M 30.609375 48.390625 
Q 23.390625 48.390625 19.1875 42.75 
Q 14.984375 37.109375 14.984375 27.296875 
Q 14.984375 17.484375 19.15625 11.84375 
Q 23.34375 6.203125 30.609375 6.203125 
Q 37.796875 6.203125 41.984375 11.859375 
Q 46.1875 17.53125 46.1875 27.296875 
Q 46.1875 37.015625 41.984375 42.703125 
Q 37.796875 48.390625 30.609375 48.390625 
z
M 30.609375 56 
Q 42.328125 56 49.015625 48.375 
Q 55.71875 40.765625 55.71875 27.296875 
Q 55.71875 13.875 49.015625 6.21875 
Q 42.328125 -1.421875 30.609375 -1.421875 
Q 18.84375 -1.421875 12.171875 6.21875 
Q 5.515625 13.875 5.515625 27.296875 
Q 5.515625 40.765625 12.171875 48.375 
Q 18.84375 56 30.609375 56 
z
" id="DejaVuSans-111"/>
      <path d="M 44.28125 53.078125 
L 44.28125 44.578125 
Q 40.484375 46.53125 36.375 47.5 
Q 32.28125 48.484375 27.875 48.484375 
Q 21.1875 48.484375 17.84375 46.4375 
Q 14.5 44.390625 14.5 40.28125 
Q 14.5 37.15625 16.890625 35.375 
Q 19.28125 33.59375 26.515625 31.984375 
L 29.59375 31.296875 
Q 39.15625 29.25 43.1875 25.515625 
Q 47.21875 21.78125 47.21875 15.09375 
Q 47.21875 7.46875 41.1875 3.015625 
Q 35.15625 -1.421875 24.609375 -1.421875 
Q 20.21875 -1.421875 15.453125 -0.5625 
Q 10.6875 0.296875 5.421875 2 
L 5.421875 11.28125 
Q 10.40625 8.6875 15.234375 7.390625 
Q 20.0625 6.109375 24.8125 6.109375 
Q 31.15625 6.109375 34.5625 8.28125 
Q 37.984375 10.453125 37.984375 14.40625 
Q 37.984375 18.0625 35.515625 20.015625 
Q 33.0625 21.96875 24.703125 23.78125 
L 21.578125 24.515625 
Q 13.234375 26.265625 9.515625 29.90625 
Q 5.8125 33.546875 5.8125 39.890625 
Q 5.8125 47.609375 11.28125 51.796875 
Q 16.75 56 26.8125 56 
Q 31.78125 56 36.171875 55.265625 
Q 40.578125 54.546875 44.28125 53.078125 
z
" id="DejaVuSans-115"/>
     </defs>
     <g transform="translate(203.32 101.443237)scale(0.1 -0.1)">
      <use xlink:href="#DejaVuSans-65"/>
      <use x="66.658203" xlink:href="#DejaVuSans-100"/>
      <use x="130.134766" xlink:href="#DejaVuSans-106"/>
      <use x="157.917969" xlink:href="#DejaVuSans-32"/>
      <use x="189.705078" xlink:href="#DejaVuSans-67"/>
      <use x="259.529297" xlink:href="#DejaVuSans-108"/>
      <use x="287.3125" xlink:href="#DejaVuSans-111"/>
      <use x="348.494141" xlink:href="#DejaVuSans-115"/>
      <use x="400.59375" xlink:href="#DejaVuSans-101"/>
     </g>
    </g>
    <g id="line2d_34">
     <path d="M 175.32 112.621362 
L 195.32 112.621362 
" style="fill:none;stroke:#ff7f0e;stroke-linecap:square;stroke-width:1.5;"/>
    </g>
    <g id="line2d_35"/>
    <g id="text_18">
     <!-- lb -->
     <defs>
      <path d="M 48.6875 27.296875 
Q 48.6875 37.203125 44.609375 42.84375 
Q 40.53125 48.484375 33.40625 48.484375 
Q 26.265625 48.484375 22.1875 42.84375 
Q 18.109375 37.203125 18.109375 27.296875 
Q 18.109375 17.390625 22.1875 11.75 
Q 26.265625 6.109375 33.40625 6.109375 
Q 40.53125 6.109375 44.609375 11.75 
Q 48.6875 17.390625 48.6875 27.296875 
z
M 18.109375 46.390625 
Q 20.953125 51.265625 25.265625 53.625 
Q 29.59375 56 35.59375 56 
Q 45.5625 56 51.78125 48.09375 
Q 58.015625 40.1875 58.015625 27.296875 
Q 58.015625 14.40625 51.78125 6.484375 
Q 45.5625 -1.421875 35.59375 -1.421875 
Q 29.59375 -1.421875 25.265625 0.953125 
Q 20.953125 3.328125 18.109375 8.203125 
L 18.109375 0 
L 9.078125 0 
L 9.078125 75.984375 
L 18.109375 75.984375 
z
" id="DejaVuSans-98"/>
     </defs>
     <g transform="translate(203.32 116.121362)scale(0.1 -0.1)">
      <use xlink:href="#DejaVuSans-108"/>
      <use x="27.783203" xlink:href="#DejaVuSans-98"/>
     </g>
    </g>
    <g id="line2d_36">
     <path d="M 175.32 127.299487 
L 195.32 127.299487 
" style="fill:none;stroke:#2ca02c;stroke-linecap:square;stroke-width:1.5;"/>
    </g>
    <g id="line2d_37"/>
    <g id="text_19">
     <!-- ub -->
     <defs>
      <path d="M 8.5 21.578125 
L 8.5 54.6875 
L 17.484375 54.6875 
L 17.484375 21.921875 
Q 17.484375 14.15625 20.5 10.265625 
Q 23.53125 6.390625 29.59375 6.390625 
Q 36.859375 6.390625 41.078125 11.03125 
Q 45.3125 15.671875 45.3125 23.6875 
L 45.3125 54.6875 
L 54.296875 54.6875 
L 54.296875 0 
L 45.3125 0 
L 45.3125 8.40625 
Q 42.046875 3.421875 37.71875 1 
Q 33.40625 -1.421875 27.6875 -1.421875 
Q 18.265625 -1.421875 13.375 4.4375 
Q 8.5 10.296875 8.5 21.578125 
z
M 31.109375 56 
z
" id="DejaVuSans-117"/>
     </defs>
     <g transform="translate(203.32 130.799487)scale(0.1 -0.1)">
      <use xlink:href="#DejaVuSans-117"/>
      <use x="63.378906" xlink:href="#DejaVuSans-98"/>
     </g>
    </g>
    <g id="line2d_38">
     <path d="M 175.32 141.977612 
L 195.32 141.977612 
" style="fill:none;stroke:#d62728;stroke-linecap:square;stroke-width:1.5;"/>
    </g>
    <g id="line2d_39"/>
    <g id="text_20">
     <!-- mean -->
     <defs>
      <path d="M 52 44.1875 
Q 55.375 50.25 60.0625 53.125 
Q 64.75 56 71.09375 56 
Q 79.640625 56 84.28125 50.015625 
Q 88.921875 44.046875 88.921875 33.015625 
L 88.921875 0 
L 79.890625 0 
L 79.890625 32.71875 
Q 79.890625 40.578125 77.09375 44.375 
Q 74.3125 48.1875 68.609375 48.1875 
Q 61.625 48.1875 57.5625 43.546875 
Q 53.515625 38.921875 53.515625 30.90625 
L 53.515625 0 
L 44.484375 0 
L 44.484375 32.71875 
Q 44.484375 40.625 41.703125 44.40625 
Q 38.921875 48.1875 33.109375 48.1875 
Q 26.21875 48.1875 22.15625 43.53125 
Q 18.109375 38.875 18.109375 30.90625 
L 18.109375 0 
L 9.078125 0 
L 9.078125 54.6875 
L 18.109375 54.6875 
L 18.109375 46.1875 
Q 21.1875 51.21875 25.484375 53.609375 
Q 29.78125 56 35.6875 56 
Q 41.65625 56 45.828125 52.96875 
Q 50 49.953125 52 44.1875 
z
" id="DejaVuSans-109"/>
      <path d="M 54.890625 33.015625 
L 54.890625 0 
L 45.90625 0 
L 45.90625 32.71875 
Q 45.90625 40.484375 42.875 44.328125 
Q 39.84375 48.1875 33.796875 48.1875 
Q 26.515625 48.1875 22.3125 43.546875 
Q 18.109375 38.921875 18.109375 30.90625 
L 18.109375 0 
L 9.078125 0 
L 9.078125 54.6875 
L 18.109375 54.6875 
L 18.109375 46.1875 
Q 21.34375 51.125 25.703125 53.5625 
Q 30.078125 56 35.796875 56 
Q 45.21875 56 50.046875 50.171875 
Q 54.890625 44.34375 54.890625 33.015625 
z
" id="DejaVuSans-110"/>
     </defs>
     <g transform="translate(203.32 145.477612)scale(0.1 -0.1)">
      <use xlink:href="#DejaVuSans-109"/>
      <use x="97.412109" xlink:href="#DejaVuSans-101"/>
      <use x="158.935547" xlink:href="#DejaVuSans-97"/>
      <use x="220.214844" xlink:href="#DejaVuSans-110"/>
     </g>
    </g>
   </g>
  </g>
 </g>
 <defs>
  <clipPath id="pca8ed78e3e">
   <rect height="544.4208" width="1031.184" x="166.32" y="84.8448"/>
  </clipPath>
 </defs>
</svg>
